<svg xmlns="http://www.w3.org/2000/svg" viewBox="0 0 200 200" width="200" height="200"><path d="M 78.45 40.80 L 71.27 21.07 L 90.64 16.52 L 121.55 40.80 L 128.73 21.07 L 146.48 30.03 L 154.56 68.50 L 172.75 58.00 L 180.58 76.28 L 162.04 110.94 L 182.72 114.59 L 176.97 133.63 L 140.50 148.26 L 153.99 164.35 L 137.35 175.24 L 100.00 163.00 L 100.00 184.00 L 80.25 181.64 L 59.50 148.26 L 46.01 164.35 L 32.39 149.85 L 37.96 110.94 L 17.28 114.59 L 16.17 94.73 L 45.44 68.50 L 27.25 58.00 L 39.17 42.07 L 78.45 40.80 Z M 78.00 78.00 L 122.00 78.00 L 122.00 122.00 L 78.00 122.00 Z" fill="#2563eb" fill-rule="evenodd"/></svg>